<svg width="375" height="24" viewBox="0 0 375 24" fill="none" xmlns="http://www.w3.org/2000/svg">
<path fill-rule="evenodd" clip-rule="evenodd" d="M375 24H0V8.45484C3.29853 10.0928 7.80275 11.9721 13.3957 11.9721C20.7649 11.9731 26.4139 8.78636 31.8766 5.70457C37.0759 2.77087 41.9871 0 48.2162 0C54.4453 0 59.3574 2.77087 64.5577 5.70457C70.0194 8.78636 75.6684 11.9721 83.0376 11.9721C90.4068 11.9731 96.0558 8.78636 101.519 5.70457C106.718 2.77087 111.629 0 117.858 0C124.087 0 128.999 2.77087 134.199 5.70457C139.661 8.78636 145.31 11.9731 152.68 11.9731C160.049 11.9731 165.698 8.78636 171.16 5.70457C176.36 2.77087 181.271 0 187.5 0C193.729 0 198.639 2.76982 203.838 5.70191L203.841 5.70358C209.303 8.78636 214.952 11.9731 222.321 11.9731C229.689 11.9731 235.336 8.78773 240.799 5.70655L240.802 5.70457L240.804 5.70387C246.002 2.77044 250.912 0 257.142 0C263.371 0 268.281 2.77044 273.481 5.70388L273.482 5.70457L273.484 5.70533C278.946 8.78689 284.594 11.9731 291.962 11.9731C299.332 11.9731 304.981 8.78636 310.443 5.70457C315.644 2.77087 320.556 0 326.784 0C333.013 0 337.924 2.77087 343.123 5.70457L343.127 5.70663C348.59 8.78779 354.237 11.9731 361.604 11.9721C367.198 11.9721 371.702 10.0928 375 8.45484V24Z" fill="white"/>
</svg>
